# Blender 5.1.2
# www.blender.org
mtllib magazine.mtl
o Magazine_(Body)
v -1.887574 -0.297014 0.123707
v -1.920505 -0.367636 -0.123692
v -1.887574 -0.297014 -0.123692
v -1.920505 -0.367636 0.123707
v -1.899444 -0.234161 -0.103893
v -1.899444 -0.234161 0.103909
v -1.774444 0.084025 -0.103893
v -1.774444 0.084025 0.103909
v -1.733094 0.388908 -0.103893
v -1.733094 0.388908 0.103909
v -1.733094 0.388908 -0.103893
v -2.112604 0.490599 -0.103893
v -2.112604 0.490599 0.103909
v -1.733094 0.388908 0.103909
v -2.311304 -0.099424 -0.123692
v -2.311304 -0.099424 0.123707
v -2.255534 -0.068113 -0.103893
v -2.255534 -0.068113 0.103909
v -2.344234 -0.170046 0.123707
v -1.887574 -0.297014 0.123707
v -2.311304 -0.099424 0.123707
v -1.920505 -0.367636 0.123707
v -2.255534 -0.068113 0.103909
v -1.899444 -0.234161 0.103909
v -2.153964 0.185716 0.103909
v -1.774444 0.084025 0.103909
v -1.733094 0.388908 0.103909
v -2.112604 0.490599 0.103909
v -2.344234 -0.170046 -0.123692
v -2.344234 -0.170046 0.123707
v -2.311304 -0.099424 -0.123692
v -2.311304 -0.099424 0.123707
v -2.255534 -0.068113 -0.103893
v -2.255534 -0.068113 0.103909
v -2.153964 0.185716 0.103909
v -2.153964 0.185716 -0.103893
v -2.112604 0.490599 0.103909
v -2.112604 0.490599 -0.103893
v -2.344234 -0.170046 -0.123692
v -1.920505 -0.367636 -0.123692
v -1.920505 -0.367636 0.123707
v -2.344234 -0.170046 0.123707
v -1.920505 -0.367636 -0.123692
v -2.344234 -0.170046 -0.123692
v -1.887574 -0.297014 -0.123692
v -2.311304 -0.099424 -0.123692
v -2.255534 -0.068113 -0.103893
v -1.899444 -0.234161 -0.103893
v -2.153964 0.185716 -0.103893
v -1.774444 0.084025 -0.103893
v -1.733094 0.388908 -0.103893
v -2.112604 0.490599 -0.103893
v -1.806686 0.404699 -0.110600
v -1.806686 0.404699 0.110600
v -1.841315 0.124905 -0.110600
v -1.841315 0.124905 0.110600
v -1.951895 -0.156979 -0.110599
v -1.951895 -0.156979 0.110600
v -1.907045 0.431589 -0.110600
v -1.941676 0.151796 0.110600
v -1.941676 0.151795 -0.110600
v -1.907045 0.431589 0.110600
v -2.046055 -0.113070 0.110600
v -2.046055 -0.113070 -0.110599
v -2.007396 0.458480 0.110599
v -2.042036 0.178686 -0.110600
v -2.007396 0.458480 -0.110600
v -2.042036 0.178686 0.110600
v -2.140215 -0.069161 -0.110599
v -2.140215 -0.069161 0.110600
v -1.941476 0.440815 -0.110600
v -1.941476 0.440815 0.110600
v -1.907045 0.431589 -0.110600
v -1.907045 0.431589 0.110600
v -2.041826 0.467706 -0.110600
v -2.041826 0.467706 0.110599
v -2.007396 0.458480 -0.110600
v -2.007396 0.458480 0.110599
v -1.841116 0.413925 -0.110600
v -1.841116 0.413925 0.110600
v -1.806686 0.404699 -0.110600
v -1.806686 0.404699 0.110600
v -1.951895 -0.156979 0.110600
v -1.875755 0.134131 0.110600
v -1.984205 -0.141914 0.110600
v -1.841315 0.124905 0.110600
v -1.806686 0.404699 0.110600
v -1.841116 0.413925 0.110600
v -2.046055 -0.113070 0.110600
v -1.976105 0.161022 0.110600
v -2.078365 -0.098005 0.110600
v -1.941676 0.151796 0.110600
v -1.907045 0.431589 0.110600
v -1.941476 0.440815 0.110600
v -2.140215 -0.069161 0.110600
v -2.076466 0.187912 0.110600
v -2.172525 -0.054096 0.110600
v -2.042036 0.178686 0.110600
v -2.007396 0.458480 0.110599
v -2.041826 0.467706 0.110599
v -2.041826 0.467706 -0.110600
v -2.076466 0.187912 -0.110600
v -2.076466 0.187912 0.110600
v -2.041826 0.467706 0.110599
v -2.172525 -0.054096 0.110600
v -2.172525 -0.054096 -0.110599
v -1.941476 0.440815 -0.110600
v -1.976105 0.161022 -0.110600
v -1.976105 0.161022 0.110600
v -1.941476 0.440815 0.110600
v -2.078365 -0.098005 0.110600
v -2.078365 -0.098005 -0.110599
v -1.841116 0.413925 -0.110600
v -1.875755 0.134131 -0.110600
v -1.875755 0.134131 0.110600
v -1.841116 0.413925 0.110600
v -1.984205 -0.141914 0.110600
v -1.984205 -0.141914 -0.110599
v -2.046055 -0.113070 -0.110599
v -2.046055 -0.113070 0.110600
v -2.078365 -0.098005 -0.110599
v -2.078365 -0.098005 0.110600
v -2.140215 -0.069161 -0.110599
v -2.140215 -0.069161 0.110600
v -2.172525 -0.054096 -0.110599
v -2.172525 -0.054096 0.110600
v -1.951895 -0.156979 -0.110599
v -1.951895 -0.156979 0.110600
v -1.984205 -0.141914 -0.110599
v -1.984205 -0.141914 0.110600
v -2.078365 -0.098005 -0.110599
v -1.976105 0.161022 -0.110600
v -2.046055 -0.113070 -0.110599
v -1.941676 0.151795 -0.110600
v -1.907045 0.431589 -0.110600
v -1.941476 0.440815 -0.110600
v -1.984205 -0.141914 -0.110599
v -1.875755 0.134131 -0.110600
v -1.951895 -0.156979 -0.110599
v -1.841315 0.124905 -0.110600
v -1.806686 0.404699 -0.110600
v -1.841116 0.413925 -0.110600
v -2.172525 -0.054096 -0.110599
v -2.076466 0.187912 -0.110600
v -2.140215 -0.069161 -0.110599
v -2.042036 0.178686 -0.110600
v -2.007396 0.458480 -0.110600
v -2.041826 0.467706 -0.110600
vn 0.9920 -0.1260 -0.0000
vn 0.9052 -0.4250 -0.0000
vn 0.9985 -0.0550 -0.0000
vn 0.9697 -0.2444 -0.0000
vn 0.9910 -0.1337 -0.0000
vn 0.2591 0.9658 -0.0000
vn 0.2588 0.9659 -0.0000
vn -0.7816 0.6238 -0.0000
vn -0.7846 0.6199 -0.0000
vn -0.7847 0.6199 -0.0000
vn -0.0000 -0.0000 1.0000
vn 0.0709 0.1576 0.9850
vn 0.0314 0.0707 0.9970
vn 0.1023 0.2283 0.9682
vn 0.0786 0.1728 0.9818
vn -0.9052 0.4250 -0.0000
vn -0.7817 0.6237 -0.0000
vn -0.9697 0.2444 -0.0000
vn -0.9910 0.1337 -0.0000
vn -0.9910 0.1336 -0.0000
vn -0.4251 -0.9052 -0.0000
vn -0.4250 -0.9052 -0.0000
vn -0.0000 -0.0000 -1.0000
vn 0.0710 0.1576 -0.9849
vn 0.0314 0.0707 -0.9970
vn 0.1023 0.2283 -0.9682
vn 0.0786 0.1728 -0.9818
vn 0.9821 -0.1886 -0.0000
vn 0.9317 -0.3632 -0.0000
vn 0.9806 -0.1961 -0.0000
vn 0.9290 -0.3700 -0.0000
vn 0.2592 0.9658 -0.0000
vn 0.2593 0.9658 -0.0000
vn 0.0003 -0.0000 1.0000
vn -0.9920 0.1260 -0.0000
vn -0.9806 0.1961 -0.0000
vn -0.9290 0.3700 -0.0000
vn -0.9821 0.1886 -0.0000
vn -0.9317 0.3633 -0.0000
vt 7.984540 -45.044800
vt 8.015460 -45.053600
vt 8.015460 -45.044800
vt 7.984540 -45.053600
vt 8.012990 -45.036999
vt 7.987010 -45.036999
vt 8.012990 -44.997200
vt 7.987010 -44.997200
vt 8.012990 -44.959099
vt 7.987010 -44.959099
vt 7.961800 -45.013000
vt 8.009240 -45.013000
vt 8.009240 -44.987000
vt 7.961800 -44.987000
vt 8.034080 -44.984501
vt 8.027110 -45.013000
vt 8.034080 -45.015499
vt 8.027110 -44.987000
vt 7.961800 -45.028900
vt 8.018890 -45.044800
vt 7.965920 -45.020100
vt 8.014770 -45.053600
vt 7.972890 -45.016201
vt 8.017400 -45.036999
vt 7.985590 -44.984501
vt 8.033030 -44.997200
vt 8.038200 -44.959099
vt 7.990760 -44.946400
vt 7.984540 -45.028900
vt 8.015460 -45.028900
vt 7.984540 -45.020100
vt 8.015460 -45.020100
vt 7.987010 -45.016201
vt 8.012990 -45.016201
vt 8.012990 -44.984501
vt 7.987010 -44.984501
vt 8.012990 -44.946400
vt 7.987010 -44.946400
vt 7.961800 -45.015499
vt 8.014770 -45.015499
vt 8.014770 -44.984501
vt 7.961800 -44.984501
vt 7.985230 -45.053600
vt 8.038200 -45.028900
vt 7.981110 -45.044800
vt 8.034080 -45.020100
vt 8.027110 -45.016201
vt 7.982600 -45.036999
vt 8.014410 -44.984501
vt 7.966970 -44.997200
vt 7.961800 -44.959099
vt 8.009240 -44.946400
vt 0.013826 -48.968800
vt -0.013826 -48.968800
vt 0.013826 -49.003799
vt -0.013826 -49.003799
vt 0.013826 -49.039001
vt -0.013826 -49.039001
vt 0.013826 -48.965500
vt -0.013826 -49.000401
vt 0.013826 -49.000401
vt -0.013826 -48.965500
vt -0.013826 -49.033600
vt 0.013826 -49.033600
vt -0.013826 -48.962101
vt 0.013826 -48.997101
vt 0.013826 -48.962101
vt -0.013826 -48.997101
vt 0.013826 -49.028099
vt -0.013826 -49.028099
vt -0.006017 -49.013802
vt -0.006017 -48.986198
vt -0.010321 -49.013802
vt -0.010321 -48.986198
vt 0.006528 -49.013802
vt 0.006528 -48.986198
vt 0.002224 -49.013802
vt 0.002224 -48.986198
vt -0.018561 -49.013802
vt -0.018561 -48.986198
vt -0.022865 -49.013802
vt -0.022865 -48.986198
vt 0.004714 -49.039001
vt 0.014232 -49.002701
vt 0.000676 -49.037201
vt 0.018536 -49.003799
vt 0.022865 -48.968800
vt 0.018561 -48.967701
vt -0.007056 -49.033600
vt 0.001687 -48.999298
vt -0.011095 -49.031700
vt 0.005991 -49.000401
vt 0.010321 -48.965500
vt 0.006017 -48.964298
vt -0.018827 -49.028099
vt -0.010857 -48.995899
vt -0.022865 -49.026199
vt -0.006553 -48.997101
vt -0.002224 -48.962101
vt -0.006528 -48.960999
vt -0.013826 -48.960999
vt -0.013826 -48.995899
vt 0.013826 -48.995899
vt 0.013826 -48.960999
vt 0.013826 -49.026199
vt -0.013826 -49.026199
vt -0.013826 -48.964298
vt -0.013826 -48.999298
vt 0.013826 -48.999298
vt 0.013826 -48.964298
vt 0.013826 -49.031700
vt -0.013826 -49.031700
vt -0.013826 -48.967701
vt -0.013826 -49.002701
vt 0.013826 -49.002701
vt 0.013826 -48.967701
vt 0.013826 -49.037201
vt -0.013826 -49.037201
vt -0.007056 -49.013802
vt -0.007056 -48.986198
vt -0.011095 -49.013802
vt -0.011095 -48.986198
vt -0.018827 -49.013802
vt -0.018827 -48.986198
vt 0.004714 -49.013802
vt 0.004714 -48.986198
vt 0.000676 -49.013802
vt 0.000676 -48.986198
vt 0.011095 -49.031700
vt -0.001687 -48.999298
vt 0.007056 -49.033600
vt -0.005991 -49.000401
vt -0.010321 -48.965500
vt -0.006017 -48.964298
vt -0.000676 -49.037201
vt -0.014232 -49.002701
vt -0.004714 -49.039001
vt -0.018536 -49.003799
vt -0.022865 -48.968800
vt -0.018561 -48.967701
vt 0.022865 -49.026199
vt 0.010857 -48.995899
vt 0.018827 -49.028099
vt 0.006553 -48.997101
vt 0.002224 -48.962101
vt 0.006528 -48.960999
s 1
usemtl Body1Mtl.001
f 1/1/1 2/2/2 3/3/1
f 2/2/2 1/1/1 4/4/2
f 5/5/3 1/1/1 3/3/1
f 1/1/1 5/5/3 6/6/3
f 7/7/4 6/6/3 5/5/3
f 6/6/3 7/7/4 8/8/4
f 9/9/5 8/8/4 7/7/4
f 8/8/4 9/9/5 10/10/5
f 11/11/6 12/12/7 13/13/7
f 11/11/6 13/13/7 14/14/7
f 16/15/8 17/16/9 15/17/8
f 17/16/9 16/15/8 18/18/10
f 19/19/11 20/20/12 21/21/13
f 20/20/12 19/19/11 22/22/11
f 20/20/12 23/23/14 21/21/13
f 23/23/14 20/20/12 24/24/15
f 24/24/15 25/25/11 23/23/14
f 25/25/11 24/24/15 26/26/11
f 25/25/11 26/26/11 27/27/11
f 25/25/11 27/27/11 28/28/11
f 29/29/16 30/30/16 31/31/17
f 31/31/17 30/30/16 32/32/17
f 33/33/10 34/34/10 35/35/18
f 36/36/18 33/33/10 35/35/18
f 36/36/18 35/35/18 37/37/19
f 38/38/20 36/36/18 37/37/19
f 39/39/21 40/40/22 41/41/22
f 39/39/21 41/41/22 42/42/21
f 43/43/23 44/44/23 45/45/24
f 45/45/24 44/44/23 46/46/25
f 45/45/24 46/46/25 47/47/26
f 47/47/26 48/48/27 45/45/24
f 48/48/27 47/47/26 49/49/23
f 49/49/23 50/50/23 48/48/27
f 49/49/23 51/51/23 50/50/23
f 51/51/23 49/49/23 52/52/23
usemtl Inner1Mtl
f 53/53/1 54/54/1 55/55/28
f 55/55/28 54/54/1 56/56/28
f 55/55/28 56/56/28 57/57/29
f 57/57/29 56/56/28 58/58/29
f 59/59/1 60/60/30 61/61/30
f 60/60/30 59/59/1 62/62/1
f 63/63/31 61/61/30 60/60/30
f 61/61/30 63/63/31 64/64/31
f 65/65/1 66/66/30 67/67/1
f 66/66/30 65/65/1 68/68/30
f 66/66/30 68/68/30 69/69/31
f 69/69/31 68/68/30 70/70/31
f 71/71/7 72/72/32 73/73/32
f 73/73/32 72/72/32 74/74/32
f 75/75/32 76/76/32 77/77/32
f 77/77/32 76/76/32 78/78/33
f 79/79/7 80/80/32 81/81/32
f 81/81/32 80/80/32 82/82/32
f 83/83/11 84/84/11 85/85/11
f 84/84/11 83/83/11 86/86/11
f 87/87/11 84/84/11 86/86/11
f 84/84/11 87/87/11 88/88/34
f 89/89/11 90/90/11 91/91/11
f 90/90/11 89/89/11 92/92/11
f 93/93/11 90/90/11 92/92/11
f 90/90/11 93/93/11 94/94/11
f 95/95/11 96/96/11 97/97/11
f 96/96/11 95/95/11 98/98/11
f 99/99/11 96/96/11 98/98/11
f 96/96/11 99/99/11 100/100/11
f 101/101/35 102/102/36 103/103/36
f 101/101/35 103/103/36 104/104/35
f 102/102/36 105/105/37 103/103/36
f 102/102/36 106/106/37 105/105/37
f 107/107/35 108/108/38 109/109/38
f 107/107/35 109/109/38 110/110/35
f 108/108/38 111/111/37 109/109/38
f 108/108/38 112/112/37 111/111/37
f 113/113/35 114/114/38 115/115/38
f 113/113/35 115/115/38 116/116/35
f 114/114/38 117/117/39 115/115/38
f 114/114/38 118/118/39 117/117/39
f 119/119/22 120/120/21 121/121/21
f 121/121/21 120/120/21 122/122/22
f 123/123/22 124/124/21 125/81/21
f 125/81/21 124/124/21 126/82/22
f 127/125/22 128/126/22 129/127/22
f 129/127/22 128/126/22 130/128/22
f 131/129/23 132/130/23 133/131/23
f 134/132/23 133/131/23 132/130/23
f 132/130/23 135/133/23 134/132/23
f 135/133/23 132/130/23 136/134/23
f 137/135/23 138/136/23 139/137/23
f 140/138/23 139/137/23 138/136/23
f 138/136/23 141/139/23 140/138/23
f 141/139/23 138/136/23 142/140/23
f 143/141/23 144/142/23 145/143/23
f 146/144/23 145/143/23 144/142/23
f 144/142/23 147/145/23 146/144/23
f 147/145/23 144/142/23 148/146/23
